<svg xmlns="http://www.w3.org/2000/svg" viewBox="0 0 200 200" width="200" height="200">
  <defs>
    <linearGradient id="grad1" x1="0%" y1="0%" x2="100%" y2="100%">
      <stop offset="0%" style="stop-color:#4CAF50;stop-opacity:1" />
      <stop offset="100%" style="stop-color:#2E7D32;stop-opacity:1" />
    </linearGradient>
  </defs>
  <!-- Shield Background -->
  <path d="M100 10 C 60 10, 20 40, 20 90 C 20 150, 60 180, 100 195 C 140 180, 180 150, 180 90 C 180 40, 140 10, 100 10 Z" fill="url(#grad1)" />
  <!-- Leaf Icon -->
  <path d="M100 40 Q 140 40, 150 90 Q 160 140, 100 160 Q 40 140, 50 90 Q 60 40, 100 40 Z" fill="#E8F5E9" />
  <path d="M100 40 Q 100 100, 100 160" stroke="#4CAF50" stroke-width="4" fill="none" />
  <path d="M100 100 Q 130 90, 140 80" stroke="#4CAF50" stroke-width="4" fill="none" />
  <path d="M100 120 Q 70 110, 60 100" stroke="#4CAF50" stroke-width="4" fill="none" />
</svg>
